HIERARCHY
ROOT root
{
	OFFSET	0	13.1	24.9
	CHANNELS 6  Xposition Yposition Zposition Xrotation Yrotation Zrotation
	JOINT spine_1
	{
		OFFSET	0	9.99999	0
		CHANNELS 3  Xrotation Yrotation Zrotation
		JOINT spine_2
		{
			OFFSET	0	112	-10
			CHANNELS 3  Xrotation Yrotation Zrotation
			JOINT spine_3
			{
				OFFSET	0	206.5	19.3
				CHANNELS 3  Xrotation Yrotation Zrotation
				JOINT spine_4
				{
					OFFSET	0	110.4	14.6
					CHANNELS 3  Xrotation Yrotation Zrotation
					JOINT neck_1
					{
						OFFSET	0	71.8	-50.3
						CHANNELS 3  Xrotation Yrotation Zrotation
						JOINT neck_2
						{
							OFFSET	0	86.2	-25.8
							CHANNELS 3  Xrotation Yrotation Zrotation
							JOINT head_ee
							{
								OFFSET	0	179.8	-8.7
								CHANNELS 3  Xrotation Yrotation Zrotation
								End Site
								{
									OFFSET	1	0	0
								}
							}
						}
					}
					JOINT left_clavicle
					{
						OFFSET	-43.2	22.4	-70.8
						CHANNELS 3  Xrotation Yrotation Zrotation
						JOINT left_shoulder
						{
							OFFSET	-93.9	-5.79999	48.7
							CHANNELS 3  Xrotation Yrotation Zrotation
							JOINT left_elbow
							{
								OFFSET	-291.4	-30.8	15.2
								CHANNELS 3  Xrotation Yrotation Zrotation
								JOINT left_lowarm_twist
								{
									OFFSET	-110.7	-3.89999	13.6
									CHANNELS 3  Xrotation Yrotation Zrotation
									JOINT left_hand
									{
										OFFSET	-110.7	-3.89999	13.6
										CHANNELS 3  Xrotation Yrotation Zrotation
										JOINT left_ee
										{
											OFFSET	-80.8	-5.10001	12.1
											CHANNELS 3  Xrotation Yrotation Zrotation
											End Site
											{
												OFFSET	1	0	0
											}
										}
									}
								}
							}
						}
					}
					JOINT right_clavicle
					{
						OFFSET	43.2	22.4	-70.8
						CHANNELS 3  Xrotation Yrotation Zrotation
						JOINT right_shoulder
						{
							OFFSET	93.9	-5.79999	48.7
							CHANNELS 3  Xrotation Yrotation Zrotation
							JOINT right_elbow
							{
								OFFSET	291.4	-30.8	15.2
								CHANNELS 3  Xrotation Yrotation Zrotation
								JOINT right_lowarm_twist
								{
									OFFSET	110.7	-3.89999	13.6
									CHANNELS 3  Xrotation Yrotation Zrotation
									JOINT right_hand
									{
										OFFSET	110.7	-3.89999	13.6
										CHANNELS 3  Xrotation Yrotation Zrotation
										JOINT right_ee
										{
											OFFSET	80.8	-5.10001	12.1
											CHANNELS 3  Xrotation Yrotation Zrotation
											End Site
											{
												OFFSET	1	0	0
											}
										}
									}
								}
							}
						}
					}
				}
			}
		}
	}
	JOINT left_hip
	{
		OFFSET	-82.8	-127.5	0.300001
		CHANNELS 3  Xrotation Yrotation Zrotation
		JOINT left_knee
		{
			OFFSET	-28.2	-396.7	2.2
			CHANNELS 3  Xrotation Yrotation Zrotation
			JOINT left_ankle
			{
				OFFSET	-11.7	-411.3	35.4
				CHANNELS 3  Xrotation Yrotation Zrotation
				JOINT left_toes
				{
					OFFSET	0	-60	-88.6
					CHANNELS 3  Xrotation Yrotation Zrotation
					JOINT left_foot_ee
					{
						OFFSET	-22.5	-16.5	-42.2
						CHANNELS 3  Xrotation Yrotation Zrotation
						End Site
						{
							OFFSET	1	0	0
						}
					}
				}
			}
		}
	}
	JOINT right_hip
	{
		OFFSET	82.8	-127.5	0.300001
		CHANNELS 3  Xrotation Yrotation Zrotation
		JOINT right_knee
		{
			OFFSET	28.2	-396.7	2.2
			CHANNELS 3  Xrotation Yrotation Zrotation
			JOINT right_ankle
			{
				OFFSET	11.7	-411.3	35.4
				CHANNELS 3  Xrotation Yrotation Zrotation
				JOINT right_toes
				{
					OFFSET	0	-60	-88.6
					CHANNELS 3  Xrotation Yrotation Zrotation
					JOINT right_foot_ee
					{
						OFFSET	22.5	-16.5	-42.2
						CHANNELS 3  Xrotation Yrotation Zrotation
						End Site
						{
							OFFSET	1	0	0
						}
					}
				}
			}
		}
	}
}
MOTION
Frames: 9
Frame Time: 0.02
2231.11 736.736 -673.448 170.036 -52.126 170.02 -5.06336 -0.325379 -2.25682 -5.06054 -0.18115 -2.27294 -5.04813 0.498535 -2.225 -5.05501 0.140976 -2.27578 -4.97829 19.0728 10.3424 -4.57735 27.4355 13.7003 -0.0 0.0 -0.0 9.02773 13.4836 16.716 5.91971 -28.8401 59.1659 3.16289 -57.4398 1.73337 -47.8999 -3.82773 4.56858 -0.36734 8.16423 1.01679 -0.0 0.0 -0.0 8.49728 13.4864 -16.4549 -29.8532 23.0156 -45.2705 0.6552 17.9818 -0.103668 -72.8637 6.91186 -5.31876 2.04506 4.94957 -11.7679 0.0 0.0 0.0 -9.31039 2.41402 11.0993 -29.6719 0.0564924 4.50263 23.2816 23.4598 -3.26522 -0.193466 0.0 0.0 -0.0 0.0 -0.0 26.6651 25.0736 -3.91818 -9.14386 -0.267119 -1.37639 -16.352 -3.92069 -2.46232 -32.851 0.0 0.0 0.0 0.0 0.0 
2266.5 740.998 -655.596 170.061 -52.097 170.831 -5.18243 -0.363219 -2.21051 -5.17973 -0.221859 -2.22913 -5.16589 0.451173 -2.19425 -5.17259 0.0990605 -2.23794 -3.20465 19.7818 9.99889 -2.68396 28.3996 13.1324 -0.0 0.0 -0.0 9.44023 12.5359 17.5512 4.136 -27.8442 59.981 2.70393 -53.2464 1.35558 -48.8731 -3.94031 4.62267 -0.503121 8.80594 0.411172 -0.0 0.0 -0.0 8.95958 12.9757 -17.4832 -29.3518 23.7809 -45.0518 0.579521 16.0177 -0.0815385 -73.6343 7.01035 -5.32006 1.99862 5.59762 -11.1753 0.0 0.0 0.0 -9.2777 2.37268 11.0521 -32.2192 -0.0473142 4.87972 23.8521 24.2381 -3.35045 1.29233 -0.0 -0.0 -0.0 0.0 -0.0 25.77 24.6128 -4.68037 -11.6117 -0.301283 -1.75349 -15.2033 -4.68234 -2.285 -32.1239 0.0 0.0 0.0 0.0 0.0 
2284.33 742.163 -636.085 169.827 -51.4815 169.993 -5.33888 -0.25307 -1.96757 -5.33673 -0.12738 -1.97968 -5.32828 0.472657 -1.92666 -5.33343 0.162507 -1.97711 -2.28682 20.0322 9.14397 -1.71589 29.2146 12.1176 -0.0 0.0 -0.0 9.5042 11.889 17.738 3.04464 -25.5647 60.0634 2.36918 -49.5596 1.09383 -49.4104 -4.00285 4.65171 -0.597465 8.37199 -0.382675 -0.0 0.0 -0.0 9.16947 13.474 -17.923 -27.2687 24.5659 -45.6942 0.549942 15.2392 -0.0735699 -74.2627 7.09067 -5.32012 2.03889 5.58611 -11.4571 0.0 0.0 0.0 -8.686 0.660137 9.79277 -32.0644 -0.0405284 4.85694 24.669 25.325 -3.47357 0.993613 -0.0 -0.0 -0.0 0.0 -0.0 24.9101 24.2192 -5.25445 -12.0817 -0.305946 -1.82545 -13.4096 -3.87134 -2.01435 -32.1503 0.0 0.0 0.0 0.0 0.0 
2302.45 748.532 -616.673 170.033 -51.0036 170.341 -5.41385 -0.138755 -1.92171 -5.41179 -0.0162135 -1.92664 -5.40764 0.565376 -1.84192 -5.41227 0.267441 -1.90806 -0.9092 20.3614 7.86168 -0.233535 30.3711 10.5522 -0.0 0.0 -0.0 9.43649 11.4181 17.6658 1.76718 -22.1499 59.844 2.00012 -44.7301 0.823031 -50.1877 -4.0938 4.69268 -0.735746 7.71048 -1.56279 -0.0 0.0 -0.0 9.41256 13.7948 -18.444 -24.9293 25.2012 -46.5409 0.507226 14.1046 -0.0627502 -75.1606 7.20539 -5.31868 2.09653 5.57077 -11.8605 0.0 0.0 0.0 -7.46027 -1.44714 8.70597 -31.7535 -0.0270832 4.81112 25.8445 26.8746 -3.65386 0.557991 -0.0 -0.0 -0.0 0.0 -0.0 23.5595 23.6299 -6.13907 -12.7655 -0.311676 -1.93022 -10.8539 -2.68052 -1.62892 -32.1746 0.0 0.0 0.0 0.0 0.0 
2314.79 745.985 -604.87 168.112 -50.9353 168.903 -5.57987 -0.0738583 -1.84728 -5.57797 0.0438181 -1.84823 -5.57614 0.604132 -1.74729 -5.58026 0.320646 -1.82074 -0.891494 20.2773 7.70746 -0.220222 30.3369 10.3782 -0.0 0.0 -0.0 9.41005 11.3963 17.62 0.846682 -21.811 60.2066 1.93395 -43.7672 0.776863 -50.1835 -4.09331 4.69247 -0.729187 7.75699 -1.50011 -0.0 0.0 -0.0 9.62374 14.264 -18.8905 -24.3022 25.6329 -46.6758 0.513829 14.2808 -0.0643691 -75.1742 7.20712 -5.31865 2.0947 5.56754 -11.8492 0.0 0.0 0.0 -7.36969 -1.57002 8.54947 -31.6696 -0.0234986 4.79875 25.8435 26.8747 -3.65373 0.551698 -0.0 -0.0 -0.0 0.0 -0.0 23.5862 23.6357 -6.09916 -12.9291 -0.312862 -1.95529 -10.8825 -2.68279 -1.63327 -32.1824 0.0 0.0 0.0 0.0 0.0 
2344.5 744.547 -594.352 165.624 -49.6797 167.944 -5.8913 -0.0861087 -1.82643 -5.88944 0.0302663 -1.8282 -5.88707 0.594513 -1.72913 -5.89111 0.314014 -1.8013 0.739268 20.3023 6.22641 1.5511 31.0476 8.48014 -0.0 0.0 -0.0 9.56489 10.4015 18.0069 -1.61137 -18.8191 61.5094 1.63896 -39.0698 0.581545 -48.4898 -3.89585 4.60159 -1.10464 11.4905 -2.27082 -0.0 0.0 -0.0 9.53446 16.1853 -18.6034 -23.9531 27.0203 -45.1708 0.528123 14.6611 -0.0679409 -76.3411 7.35611 -5.31403 2.07859 5.66241 -11.6981 0.0 0.0 0.0 -8.46561 -0.994746 6.246 -35.5656 -0.209018 5.36758 22.2298 27.5556 -3.20827 0.736405 -0.0 -0.0 -0.0 0.0 -0.0 21.4327 21.489 -6.61598 -19.3395 -0.302912 -2.93828 -3.66135 -4.60011 -0.541396 -31.3294 0.0 0.0 0.0 0.0 0.0 
2366.79 748.368 -585.626 165.276 -49.738 167.17 -5.89536 -0.129811 -1.65891 -5.89383 -0.0240025 -1.6638 -5.89025 0.492075 -1.58957 -5.8937 0.234892 -1.64732 1.95867 20.5523 5.65049 2.90337 31.5701 7.62813 -0.0 0.0 -0.0 10.693 10.1358 20.1453 -3.93191 -17.0648 60.0875 1.28298 -32.4365 0.373197 -47.8109 -3.81748 4.56354 -1.29124 10.8751 -3.73526 -0.0 0.0 -0.0 9.42766 16.6896 -18.3396 -22.1717 28.8761 -45.5788 0.515345 14.3212 -0.0647436 -76.4861 7.37462 -5.31324 2.07423 5.60728 -11.6914 0.0 0.0 0.0 -7.88002 0.695418 5.9032 -38.596 -0.37987 5.80073 24.1126 27.0566 -3.44023 1.4852 -0.0 -0.0 -0.0 0.0 -0.0 19.83 21.901 -5.96439 -20.5666 -0.288473 -3.126 -0.390954 -6.07663 -0.057314 -30.9807 0.0 0.0 0.0 0.0 0.0 
2392.13 752.469 -568.665 164.627 -49.4598 166.673 -5.82889 -0.0874958 -1.57708 -5.8275 0.0130225 -1.57945 -5.82536 0.499481 -1.49847 -5.8284 0.256587 -1.55853 2.10629 20.7541 7.41971 3.00603 30.3799 9.57819 -0.0 0.0 -0.0 10.3157 15.8066 18.6628 -4.71969 -17.3076 62.9076 1.12914 -29.2193 0.294332 -46.0213 -3.61307 4.4588 -1.02209 9.79862 -2.49528 -0.0 0.0 -0.0 9.0828 16.8667 -17.5669 -20.9931 30.7138 -45.4132 0.55899 15.478 -0.0759662 -76.6198 7.39167 -5.31247 2.17176 6.99681 -11.7714 0.0 0.0 0.0 -5.58563 0.321429 3.19305 -41.8419 -0.588087 6.25418 18.8691 27.2725 -2.75608 0.283533 -0.0 -0.0 -0.0 0.0 -0.0 16.4587 21.5887 -5.59979 -19.8987 -0.29683 -3.02387 2.68385 -7.02728 0.390208 -29.3253 0.0 0.0 0.0 0.0 0.0 
2410.62 757.249 -555.491 163.19 -49.1422 166.319 -6.0648 -0.0992549 -1.67 -6.06325 0.00719767 -1.67293 -6.06055 0.529302 -1.58703 -6.06397 0.272054 -1.65069 1.92832 20.9177 6.44405 2.87692 31.5649 8.5282 -0.0 0.0 -0.0 10.6041 15.9003 19.1497 -5.97289 -17.2905 62.943 0.840542 -22.6057 0.168003 -46.9808 -3.72226 4.51575 -1.23265 9.06754 -4.17705 -0.0 0.0 -0.0 9.03189 17.5139 -17.4157 -19.1467 32.6533 -45.1979 0.561147 15.5348 -0.076543 -76.7767 7.41169 -5.31152 1.97036 6.33968 -10.6667 0.0 0.0 0.0 -4.70864 0.596708 -0.79067 -43.8788 -0.731793 6.53255 19.9579 25.3821 -2.86942 -0.522986 0.0 0.0 -0.0 0.0 -0.0 13.3791 17.2275 -4.90016 -21.0246 -0.282052 -3.19599 8.92232 -4.32927 1.27543 -27.6434 0.0 0.0 0.0 0.0 0.0 
